<mxfile host="app.diagrams.net" modified="2021-06-04T19:34:02.452Z" agent="5.0 (Macintosh; Intel Mac OS X 10_15_7) AppleWebKit/537.36 (KHTML, like Gecko) Chrome/90.0.4430.212 Safari/537.36" etag="j7VViss_VupRoFs5W_ZB" version="14.6.10" type="github" pages="5">
  <diagram id="6G_SY0DhZsZEQ42J7vbr" name="Alternate Chat">
    <mxGraphModel dx="2306" dy="994" grid="1" gridSize="10" guides="1" tooltips="1" connect="1" arrows="1" fold="1" page="1" pageScale="1" pageWidth="850" pageHeight="1100" math="0" shadow="0">
      <root>
        <mxCell id="nfO4w0gjCQV64Hh82ukO-0" />
        <mxCell id="nfO4w0gjCQV64Hh82ukO-1" parent="nfO4w0gjCQV64Hh82ukO-0" />
        <mxCell id="gZz3TMffz6PhuxHg0T-6-0" value="" style="rounded=0;whiteSpace=wrap;html=1;" parent="nfO4w0gjCQV64Hh82ukO-1" vertex="1">
          <mxGeometry x="130" y="40" width="650" height="760" as="geometry" />
        </mxCell>
        <mxCell id="gZz3TMffz6PhuxHg0T-6-1" value="" style="rounded=1;whiteSpace=wrap;html=1;" parent="nfO4w0gjCQV64Hh82ukO-1" vertex="1">
          <mxGeometry x="180" y="610" width="570" height="160" as="geometry" />
        </mxCell>
        <mxCell id="gZz3TMffz6PhuxHg0T-6-2" value="" style="whiteSpace=wrap;html=1;aspect=fixed;" parent="nfO4w0gjCQV64Hh82ukO-1" vertex="1">
          <mxGeometry x="200" y="630" width="110" height="110" as="geometry" />
        </mxCell>
        <mxCell id="gZz3TMffz6PhuxHg0T-6-3" value="&lt;font style=&quot;font-size: 18px&quot;&gt;Swipey&lt;/font&gt;" style="text;html=1;strokeColor=none;fillColor=none;align=center;verticalAlign=middle;whiteSpace=wrap;rounded=0;" parent="nfO4w0gjCQV64Hh82ukO-1" vertex="1">
          <mxGeometry x="240" y="680" width="40" height="20" as="geometry" />
        </mxCell>
        <mxCell id="gZz3TMffz6PhuxHg0T-6-4" value="" style="whiteSpace=wrap;html=1;aspect=fixed;" parent="nfO4w0gjCQV64Hh82ukO-1" vertex="1">
          <mxGeometry x="350" y="630" width="110" height="110" as="geometry" />
        </mxCell>
        <mxCell id="gZz3TMffz6PhuxHg0T-6-5" value="" style="whiteSpace=wrap;html=1;aspect=fixed;" parent="nfO4w0gjCQV64Hh82ukO-1" vertex="1">
          <mxGeometry x="480" y="630" width="110" height="110" as="geometry" />
        </mxCell>
        <mxCell id="gZz3TMffz6PhuxHg0T-6-6" value="&lt;font style=&quot;font-size: 18px&quot;&gt;Matches&lt;/font&gt;" style="text;html=1;strokeColor=none;fillColor=none;align=center;verticalAlign=middle;whiteSpace=wrap;rounded=0;" parent="nfO4w0gjCQV64Hh82ukO-1" vertex="1">
          <mxGeometry x="365" y="670" width="60" height="30" as="geometry" />
        </mxCell>
        <mxCell id="gZz3TMffz6PhuxHg0T-6-7" value="&lt;span style=&quot;font-size: 18px&quot;&gt;Chat&lt;/span&gt;" style="text;html=1;strokeColor=none;fillColor=none;align=center;verticalAlign=middle;whiteSpace=wrap;rounded=0;" parent="nfO4w0gjCQV64Hh82ukO-1" vertex="1">
          <mxGeometry x="505" y="670" width="60" height="30" as="geometry" />
        </mxCell>
        <mxCell id="gZz3TMffz6PhuxHg0T-6-8" value="" style="whiteSpace=wrap;html=1;aspect=fixed;" parent="nfO4w0gjCQV64Hh82ukO-1" vertex="1">
          <mxGeometry x="610" y="630" width="110" height="110" as="geometry" />
        </mxCell>
        <mxCell id="gZz3TMffz6PhuxHg0T-6-9" value="&lt;span style=&quot;font-size: 18px&quot;&gt;Settings&lt;/span&gt;" style="text;html=1;strokeColor=none;fillColor=none;align=center;verticalAlign=middle;whiteSpace=wrap;rounded=0;" parent="nfO4w0gjCQV64Hh82ukO-1" vertex="1">
          <mxGeometry x="630" y="670" width="60" height="30" as="geometry" />
        </mxCell>
        <mxCell id="gZz3TMffz6PhuxHg0T-6-10" value="" style="rounded=1;whiteSpace=wrap;html=1;" parent="nfO4w0gjCQV64Hh82ukO-1" vertex="1">
          <mxGeometry x="180" y="70" width="540" height="520" as="geometry" />
        </mxCell>
        <mxCell id="FFbQ6Aa4c9Q44x8v4pFZ-0" value="" style="group" parent="nfO4w0gjCQV64Hh82ukO-1" vertex="1" connectable="0">
          <mxGeometry x="220" y="150" width="460" height="160" as="geometry" />
        </mxCell>
        <mxCell id="FFbQ6Aa4c9Q44x8v4pFZ-1" value="" style="group" parent="FFbQ6Aa4c9Q44x8v4pFZ-0" vertex="1" connectable="0">
          <mxGeometry width="160" height="160" as="geometry" />
        </mxCell>
        <mxCell id="FFbQ6Aa4c9Q44x8v4pFZ-2" value="" style="ellipse;whiteSpace=wrap;html=1;aspect=fixed;" parent="FFbQ6Aa4c9Q44x8v4pFZ-1" vertex="1">
          <mxGeometry width="160" height="160" as="geometry" />
        </mxCell>
        <mxCell id="FFbQ6Aa4c9Q44x8v4pFZ-3" value="&lt;font style=&quot;font-size: 18px&quot;&gt;Book Cover&lt;/font&gt;" style="text;html=1;strokeColor=none;fillColor=none;align=center;verticalAlign=middle;whiteSpace=wrap;rounded=0;" parent="FFbQ6Aa4c9Q44x8v4pFZ-1" vertex="1">
          <mxGeometry x="20" y="52.5" width="120" height="55" as="geometry" />
        </mxCell>
        <mxCell id="FFbQ6Aa4c9Q44x8v4pFZ-4" value="" style="group" parent="FFbQ6Aa4c9Q44x8v4pFZ-0" vertex="1" connectable="0">
          <mxGeometry x="190" y="40" width="270" height="80" as="geometry" />
        </mxCell>
        <mxCell id="FFbQ6Aa4c9Q44x8v4pFZ-5" value="" style="rounded=0;whiteSpace=wrap;html=1;" parent="FFbQ6Aa4c9Q44x8v4pFZ-4" vertex="1">
          <mxGeometry width="270" height="80" as="geometry" />
        </mxCell>
        <mxCell id="FFbQ6Aa4c9Q44x8v4pFZ-6" value="&lt;font style=&quot;font-size: 18px&quot;&gt;Book Title&lt;br&gt;Chat snippet&lt;br&gt;&lt;/font&gt;" style="text;html=1;strokeColor=none;fillColor=none;align=center;verticalAlign=middle;whiteSpace=wrap;rounded=0;" parent="FFbQ6Aa4c9Q44x8v4pFZ-4" vertex="1">
          <mxGeometry x="30" y="10" width="195" height="60" as="geometry" />
        </mxCell>
        <mxCell id="FFbQ6Aa4c9Q44x8v4pFZ-7" value="" style="group" parent="nfO4w0gjCQV64Hh82ukO-1" vertex="1" connectable="0">
          <mxGeometry x="220" y="330" width="460" height="160" as="geometry" />
        </mxCell>
        <mxCell id="FFbQ6Aa4c9Q44x8v4pFZ-8" value="" style="group" parent="FFbQ6Aa4c9Q44x8v4pFZ-7" vertex="1" connectable="0">
          <mxGeometry width="160" height="160" as="geometry" />
        </mxCell>
        <mxCell id="FFbQ6Aa4c9Q44x8v4pFZ-9" value="" style="ellipse;whiteSpace=wrap;html=1;aspect=fixed;" parent="FFbQ6Aa4c9Q44x8v4pFZ-8" vertex="1">
          <mxGeometry width="160" height="160" as="geometry" />
        </mxCell>
        <mxCell id="FFbQ6Aa4c9Q44x8v4pFZ-10" value="&lt;font style=&quot;font-size: 18px&quot;&gt;Book Cover&lt;/font&gt;" style="text;html=1;strokeColor=none;fillColor=none;align=center;verticalAlign=middle;whiteSpace=wrap;rounded=0;" parent="FFbQ6Aa4c9Q44x8v4pFZ-8" vertex="1">
          <mxGeometry x="20" y="52.5" width="120" height="55" as="geometry" />
        </mxCell>
        <mxCell id="FFbQ6Aa4c9Q44x8v4pFZ-11" value="" style="group" parent="FFbQ6Aa4c9Q44x8v4pFZ-7" vertex="1" connectable="0">
          <mxGeometry x="190" y="40" width="270" height="80" as="geometry" />
        </mxCell>
        <mxCell id="FFbQ6Aa4c9Q44x8v4pFZ-12" value="" style="rounded=0;whiteSpace=wrap;html=1;" parent="FFbQ6Aa4c9Q44x8v4pFZ-11" vertex="1">
          <mxGeometry width="270" height="80" as="geometry" />
        </mxCell>
        <mxCell id="FFbQ6Aa4c9Q44x8v4pFZ-13" value="&lt;font style=&quot;font-size: 18px&quot;&gt;Book Title&lt;br&gt;Chat snippet&lt;/font&gt;" style="text;html=1;strokeColor=none;fillColor=none;align=center;verticalAlign=middle;whiteSpace=wrap;rounded=0;" parent="FFbQ6Aa4c9Q44x8v4pFZ-11" vertex="1">
          <mxGeometry x="30" y="10" width="195" height="60" as="geometry" />
        </mxCell>
        <mxCell id="Skp6swPqTjhldSHUrAJA-1" value="&lt;font style=&quot;font-size: 18px&quot;&gt;Chat View&lt;/font&gt;" style="text;html=1;strokeColor=none;fillColor=none;align=center;verticalAlign=middle;whiteSpace=wrap;rounded=0;" parent="nfO4w0gjCQV64Hh82ukO-1" vertex="1">
          <mxGeometry x="375" width="185" height="40" as="geometry" />
        </mxCell>
      </root>
    </mxGraphModel>
  </diagram>
  <diagram id="v-E54G2VV3r7IzhvQs-S" name="Home View">
    <mxGraphModel dx="2306" dy="994" grid="1" gridSize="10" guides="1" tooltips="1" connect="1" arrows="1" fold="1" page="1" pageScale="1" pageWidth="850" pageHeight="1100" math="0" shadow="0">
      <root>
        <mxCell id="h-ZZeKfAy6gkOkcvHLtz-0" />
        <mxCell id="h-ZZeKfAy6gkOkcvHLtz-1" parent="h-ZZeKfAy6gkOkcvHLtz-0" />
        <mxCell id="h-ZZeKfAy6gkOkcvHLtz-3" value="" style="verticalLabelPosition=bottom;verticalAlign=top;html=1;shadow=0;dashed=0;strokeWidth=1;shape=mxgraph.android.phone2;strokeColor=#c0c0c0;fillColor=#66FF66;" parent="h-ZZeKfAy6gkOkcvHLtz-1" vertex="1">
          <mxGeometry x="156" y="25" width="538.46" height="1050" as="geometry" />
        </mxCell>
        <mxCell id="2ekNLvioiZhmBYooOE4n-0" value="" style="rounded=1;whiteSpace=wrap;html=1;" parent="h-ZZeKfAy6gkOkcvHLtz-1" vertex="1">
          <mxGeometry x="215.23" y="160" width="420" height="600" as="geometry" />
        </mxCell>
        <mxCell id="2ekNLvioiZhmBYooOE4n-1" value="&lt;font style=&quot;font-size: 24px&quot;&gt;Book Cover Photo&lt;/font&gt;" style="text;html=1;strokeColor=none;fillColor=none;align=center;verticalAlign=middle;whiteSpace=wrap;rounded=0;" parent="h-ZZeKfAy6gkOkcvHLtz-1" vertex="1">
          <mxGeometry x="310" y="380" width="230" height="160" as="geometry" />
        </mxCell>
        <mxCell id="ZQiIKaK5XFUDSkbx9WeK-9" value="" style="group" parent="h-ZZeKfAy6gkOkcvHLtz-1" vertex="1" connectable="0">
          <mxGeometry x="180" y="790" width="490" height="160" as="geometry" />
        </mxCell>
        <mxCell id="ZQiIKaK5XFUDSkbx9WeK-0" value="" style="rounded=1;whiteSpace=wrap;html=1;" parent="ZQiIKaK5XFUDSkbx9WeK-9" vertex="1">
          <mxGeometry width="490" height="160" as="geometry" />
        </mxCell>
        <mxCell id="ZQiIKaK5XFUDSkbx9WeK-5" value="" style="whiteSpace=wrap;html=1;aspect=fixed;" parent="ZQiIKaK5XFUDSkbx9WeK-9" vertex="1">
          <mxGeometry x="190.23000000000002" y="20" width="110" height="110" as="geometry" />
        </mxCell>
        <mxCell id="ZQiIKaK5XFUDSkbx9WeK-6" value="&lt;font style=&quot;font-size: 18px&quot;&gt;Matches/&lt;br&gt;Chat&lt;br&gt;&lt;/font&gt;" style="text;html=1;strokeColor=none;fillColor=none;align=center;verticalAlign=middle;whiteSpace=wrap;rounded=0;" parent="ZQiIKaK5XFUDSkbx9WeK-9" vertex="1">
          <mxGeometry x="197.73000000000002" y="45" width="95" height="60" as="geometry" />
        </mxCell>
        <mxCell id="ZQiIKaK5XFUDSkbx9WeK-7" value="" style="whiteSpace=wrap;html=1;aspect=fixed;" parent="ZQiIKaK5XFUDSkbx9WeK-9" vertex="1">
          <mxGeometry x="345.23" y="20" width="110" height="110" as="geometry" />
        </mxCell>
        <mxCell id="ZQiIKaK5XFUDSkbx9WeK-8" value="" style="whiteSpace=wrap;html=1;aspect=fixed;" parent="ZQiIKaK5XFUDSkbx9WeK-9" vertex="1">
          <mxGeometry x="35.23000000000002" y="20" width="110" height="110" as="geometry" />
        </mxCell>
        <mxCell id="ZQiIKaK5XFUDSkbx9WeK-4" value="&lt;span style=&quot;font-size: 18px&quot;&gt;Settings&lt;/span&gt;" style="text;html=1;strokeColor=none;fillColor=none;align=center;verticalAlign=middle;whiteSpace=wrap;rounded=0;" parent="ZQiIKaK5XFUDSkbx9WeK-9" vertex="1">
          <mxGeometry x="365" y="50" width="60" height="30" as="geometry" />
        </mxCell>
        <mxCell id="ZQiIKaK5XFUDSkbx9WeK-2" value="&lt;font style=&quot;font-size: 18px&quot;&gt;Home/&lt;br&gt;Swipey&lt;/font&gt;" style="text;html=1;strokeColor=none;fillColor=none;align=center;verticalAlign=middle;whiteSpace=wrap;rounded=0;" parent="ZQiIKaK5XFUDSkbx9WeK-9" vertex="1">
          <mxGeometry x="70.22999999999999" y="60" width="40" height="20" as="geometry" />
        </mxCell>
        <mxCell id="aoHzPowEeBF2f4DvNTE7-0" value="&lt;font style=&quot;font-size: 24px&quot;&gt;Home View&lt;/font&gt;" style="text;html=1;strokeColor=none;fillColor=none;align=center;verticalAlign=middle;whiteSpace=wrap;rounded=0;" parent="h-ZZeKfAy6gkOkcvHLtz-1" vertex="1">
          <mxGeometry x="50" y="50" width="40" height="20" as="geometry" />
        </mxCell>
      </root>
    </mxGraphModel>
  </diagram>
  <diagram id="tV3lTLnYzofJGPbnfR9j" name="Matches View">
    <mxGraphModel dx="2306" dy="994" grid="1" gridSize="10" guides="1" tooltips="1" connect="1" arrows="1" fold="1" page="1" pageScale="1" pageWidth="850" pageHeight="1100" math="0" shadow="0">
      <root>
        <mxCell id="h2Xa9_2YaoukBSOKHVab-0" />
        <mxCell id="h2Xa9_2YaoukBSOKHVab-1" parent="h2Xa9_2YaoukBSOKHVab-0" />
        <mxCell id="t6AIPgp5XbCtbuu_viBj-0" value="" style="verticalLabelPosition=bottom;verticalAlign=top;html=1;shadow=0;dashed=0;strokeWidth=1;shape=mxgraph.android.phone2;strokeColor=#c0c0c0;fillColor=#66FF66;" parent="h2Xa9_2YaoukBSOKHVab-1" vertex="1">
          <mxGeometry x="156" y="25" width="538.46" height="1050" as="geometry" />
        </mxCell>
        <mxCell id="t6AIPgp5XbCtbuu_viBj-3" value="" style="group" parent="h2Xa9_2YaoukBSOKHVab-1" vertex="1" connectable="0">
          <mxGeometry x="180" y="790" width="490" height="160" as="geometry" />
        </mxCell>
        <mxCell id="t6AIPgp5XbCtbuu_viBj-4" value="" style="rounded=1;whiteSpace=wrap;html=1;" parent="t6AIPgp5XbCtbuu_viBj-3" vertex="1">
          <mxGeometry width="490" height="160" as="geometry" />
        </mxCell>
        <mxCell id="t6AIPgp5XbCtbuu_viBj-5" value="" style="whiteSpace=wrap;html=1;aspect=fixed;" parent="t6AIPgp5XbCtbuu_viBj-3" vertex="1">
          <mxGeometry x="190.23000000000002" y="20" width="110" height="110" as="geometry" />
        </mxCell>
        <mxCell id="t6AIPgp5XbCtbuu_viBj-6" value="&lt;font style=&quot;font-size: 18px&quot;&gt;Matches/&lt;br&gt;Chat&lt;br&gt;&lt;/font&gt;" style="text;html=1;strokeColor=none;fillColor=none;align=center;verticalAlign=middle;whiteSpace=wrap;rounded=0;" parent="t6AIPgp5XbCtbuu_viBj-3" vertex="1">
          <mxGeometry x="197.73000000000002" y="45" width="95" height="60" as="geometry" />
        </mxCell>
        <mxCell id="t6AIPgp5XbCtbuu_viBj-7" value="" style="whiteSpace=wrap;html=1;aspect=fixed;" parent="t6AIPgp5XbCtbuu_viBj-3" vertex="1">
          <mxGeometry x="345.23" y="20" width="110" height="110" as="geometry" />
        </mxCell>
        <mxCell id="t6AIPgp5XbCtbuu_viBj-8" value="" style="whiteSpace=wrap;html=1;aspect=fixed;" parent="t6AIPgp5XbCtbuu_viBj-3" vertex="1">
          <mxGeometry x="35.23000000000002" y="20" width="110" height="110" as="geometry" />
        </mxCell>
        <mxCell id="t6AIPgp5XbCtbuu_viBj-9" value="&lt;span style=&quot;font-size: 18px&quot;&gt;Settings&lt;/span&gt;" style="text;html=1;strokeColor=none;fillColor=none;align=center;verticalAlign=middle;whiteSpace=wrap;rounded=0;" parent="t6AIPgp5XbCtbuu_viBj-3" vertex="1">
          <mxGeometry x="365" y="50" width="60" height="30" as="geometry" />
        </mxCell>
        <mxCell id="t6AIPgp5XbCtbuu_viBj-10" value="&lt;font style=&quot;font-size: 18px&quot;&gt;Home/&lt;br&gt;Swipey&lt;/font&gt;" style="text;html=1;strokeColor=none;fillColor=none;align=center;verticalAlign=middle;whiteSpace=wrap;rounded=0;" parent="t6AIPgp5XbCtbuu_viBj-3" vertex="1">
          <mxGeometry x="70.22999999999999" y="60" width="40" height="20" as="geometry" />
        </mxCell>
        <mxCell id="t6AIPgp5XbCtbuu_viBj-11" value="&lt;font style=&quot;font-size: 24px&quot;&gt;Matches View&lt;/font&gt;" style="text;html=1;strokeColor=none;fillColor=none;align=center;verticalAlign=middle;whiteSpace=wrap;rounded=0;" parent="h2Xa9_2YaoukBSOKHVab-1" vertex="1">
          <mxGeometry x="50" y="50" width="40" height="20" as="geometry" />
        </mxCell>
        <mxCell id="Bn5sNCg765aQ84gKmjkC-21" value="" style="rounded=1;whiteSpace=wrap;html=1;" parent="h2Xa9_2YaoukBSOKHVab-1" vertex="1">
          <mxGeometry x="208" y="130" width="220" height="80" as="geometry" />
        </mxCell>
        <mxCell id="Bn5sNCg765aQ84gKmjkC-39" value="" style="group" parent="h2Xa9_2YaoukBSOKHVab-1" vertex="1" connectable="0">
          <mxGeometry x="328" y="140" width="80" height="60" as="geometry" />
        </mxCell>
        <mxCell id="Bn5sNCg765aQ84gKmjkC-43" value="" style="group" parent="Bn5sNCg765aQ84gKmjkC-39" vertex="1" connectable="0">
          <mxGeometry width="80" height="60" as="geometry" />
        </mxCell>
        <mxCell id="Bn5sNCg765aQ84gKmjkC-23" value="" style="rounded=1;whiteSpace=wrap;html=1;fillColor=#66FF66;" parent="Bn5sNCg765aQ84gKmjkC-43" vertex="1">
          <mxGeometry width="80" height="60" as="geometry" />
        </mxCell>
        <mxCell id="Bn5sNCg765aQ84gKmjkC-25" value="Chat View&lt;br&gt;Toggle" style="text;html=1;strokeColor=none;fillColor=none;align=center;verticalAlign=middle;whiteSpace=wrap;rounded=0;" parent="Bn5sNCg765aQ84gKmjkC-43" vertex="1">
          <mxGeometry x="5" y="20" width="70" height="20" as="geometry" />
        </mxCell>
        <mxCell id="Bn5sNCg765aQ84gKmjkC-40" value="" style="group" parent="h2Xa9_2YaoukBSOKHVab-1" vertex="1" connectable="0">
          <mxGeometry x="230" y="140" width="80" height="60" as="geometry" />
        </mxCell>
        <mxCell id="Bn5sNCg765aQ84gKmjkC-42" value="" style="group" parent="Bn5sNCg765aQ84gKmjkC-40" vertex="1" connectable="0">
          <mxGeometry width="80" height="60" as="geometry" />
        </mxCell>
        <mxCell id="Bn5sNCg765aQ84gKmjkC-22" value="" style="rounded=1;whiteSpace=wrap;html=1;fillColor=#66B2FF;" parent="Bn5sNCg765aQ84gKmjkC-42" vertex="1">
          <mxGeometry width="80" height="60" as="geometry" />
        </mxCell>
        <mxCell id="Bn5sNCg765aQ84gKmjkC-24" value="Info View&lt;br&gt;Toggle" style="text;html=1;strokeColor=none;fillColor=none;align=center;verticalAlign=middle;whiteSpace=wrap;rounded=0;" parent="Bn5sNCg765aQ84gKmjkC-42" vertex="1">
          <mxGeometry x="5" y="20" width="70" height="20" as="geometry" />
        </mxCell>
        <mxCell id="Bn5sNCg765aQ84gKmjkC-44" value="" style="group" parent="h2Xa9_2YaoukBSOKHVab-1" vertex="1" connectable="0">
          <mxGeometry x="470" y="150" width="170" height="40" as="geometry" />
        </mxCell>
        <mxCell id="Bn5sNCg765aQ84gKmjkC-2" value="" style="rounded=1;whiteSpace=wrap;html=1;" parent="Bn5sNCg765aQ84gKmjkC-44" vertex="1">
          <mxGeometry width="170" height="40" as="geometry" />
        </mxCell>
        <mxCell id="Bn5sNCg765aQ84gKmjkC-3" value="&lt;span style=&quot;font-size: 18px&quot;&gt;Search / Filter&lt;/span&gt;" style="text;html=1;strokeColor=none;fillColor=none;align=center;verticalAlign=middle;whiteSpace=wrap;rounded=0;" parent="Bn5sNCg765aQ84gKmjkC-44" vertex="1">
          <mxGeometry x="22" y="5" width="133" height="30" as="geometry" />
        </mxCell>
        <mxCell id="Bn5sNCg765aQ84gKmjkC-45" value="" style="group" parent="h2Xa9_2YaoukBSOKHVab-1" vertex="1" connectable="0">
          <mxGeometry x="200" y="245" width="450" height="160" as="geometry" />
        </mxCell>
        <mxCell id="Bn5sNCg765aQ84gKmjkC-5" value="" style="group" parent="Bn5sNCg765aQ84gKmjkC-45" vertex="1" connectable="0">
          <mxGeometry width="160" height="160" as="geometry" />
        </mxCell>
        <mxCell id="Bn5sNCg765aQ84gKmjkC-6" value="" style="ellipse;whiteSpace=wrap;html=1;aspect=fixed;" parent="Bn5sNCg765aQ84gKmjkC-5" vertex="1">
          <mxGeometry width="160" height="160" as="geometry" />
        </mxCell>
        <mxCell id="Bn5sNCg765aQ84gKmjkC-7" value="&lt;font style=&quot;font-size: 18px&quot;&gt;Book Cover&lt;/font&gt;" style="text;html=1;strokeColor=none;fillColor=none;align=center;verticalAlign=middle;whiteSpace=wrap;rounded=0;" parent="Bn5sNCg765aQ84gKmjkC-5" vertex="1">
          <mxGeometry x="20" y="52.5" width="120" height="55" as="geometry" />
        </mxCell>
        <mxCell id="Bn5sNCg765aQ84gKmjkC-8" value="" style="group" parent="Bn5sNCg765aQ84gKmjkC-45" vertex="1" connectable="0">
          <mxGeometry x="180" y="25" width="270" height="110" as="geometry" />
        </mxCell>
        <mxCell id="Bn5sNCg765aQ84gKmjkC-9" value="" style="group" parent="Bn5sNCg765aQ84gKmjkC-8" vertex="1" connectable="0">
          <mxGeometry width="270" height="110" as="geometry" />
        </mxCell>
        <mxCell id="Bn5sNCg765aQ84gKmjkC-10" value="" style="rounded=0;whiteSpace=wrap;html=1;" parent="Bn5sNCg765aQ84gKmjkC-9" vertex="1">
          <mxGeometry width="270" height="110" as="geometry" />
        </mxCell>
        <mxCell id="Bn5sNCg765aQ84gKmjkC-11" value="&lt;font style=&quot;font-size: 18px&quot;&gt;Book Title Author&lt;/font&gt;" style="text;html=1;strokeColor=none;fillColor=#66B2FF;align=center;verticalAlign=middle;whiteSpace=wrap;rounded=0;" parent="Bn5sNCg765aQ84gKmjkC-9" vertex="1">
          <mxGeometry x="30" width="180" height="40" as="geometry" />
        </mxCell>
        <mxCell id="Bn5sNCg765aQ84gKmjkC-12" value="&lt;font style=&quot;font-size: 18px&quot;&gt;Chat snippet&lt;/font&gt;" style="text;html=1;strokeColor=none;fillColor=#66FF66;align=center;verticalAlign=middle;whiteSpace=wrap;rounded=0;" parent="Bn5sNCg765aQ84gKmjkC-9" vertex="1">
          <mxGeometry x="35" y="50" width="175" height="45" as="geometry" />
        </mxCell>
        <mxCell id="Bn5sNCg765aQ84gKmjkC-80" value="" style="group" parent="h2Xa9_2YaoukBSOKHVab-1" vertex="1" connectable="0">
          <mxGeometry x="200.23" y="420" width="450" height="160" as="geometry" />
        </mxCell>
        <mxCell id="Bn5sNCg765aQ84gKmjkC-81" value="" style="group" parent="Bn5sNCg765aQ84gKmjkC-80" vertex="1" connectable="0">
          <mxGeometry width="160" height="160" as="geometry" />
        </mxCell>
        <mxCell id="Bn5sNCg765aQ84gKmjkC-82" value="" style="ellipse;whiteSpace=wrap;html=1;aspect=fixed;" parent="Bn5sNCg765aQ84gKmjkC-81" vertex="1">
          <mxGeometry width="160" height="160" as="geometry" />
        </mxCell>
        <mxCell id="Bn5sNCg765aQ84gKmjkC-83" value="&lt;font style=&quot;font-size: 18px&quot;&gt;Book Cover&lt;/font&gt;" style="text;html=1;strokeColor=none;fillColor=none;align=center;verticalAlign=middle;whiteSpace=wrap;rounded=0;" parent="Bn5sNCg765aQ84gKmjkC-81" vertex="1">
          <mxGeometry x="20" y="52.5" width="120" height="55" as="geometry" />
        </mxCell>
        <mxCell id="Bn5sNCg765aQ84gKmjkC-84" value="" style="group" parent="Bn5sNCg765aQ84gKmjkC-80" vertex="1" connectable="0">
          <mxGeometry x="180" y="25" width="270" height="110" as="geometry" />
        </mxCell>
        <mxCell id="Bn5sNCg765aQ84gKmjkC-85" value="" style="group" parent="Bn5sNCg765aQ84gKmjkC-84" vertex="1" connectable="0">
          <mxGeometry width="270" height="110" as="geometry" />
        </mxCell>
        <mxCell id="Bn5sNCg765aQ84gKmjkC-86" value="" style="rounded=0;whiteSpace=wrap;html=1;" parent="Bn5sNCg765aQ84gKmjkC-85" vertex="1">
          <mxGeometry width="270" height="110" as="geometry" />
        </mxCell>
        <mxCell id="Bn5sNCg765aQ84gKmjkC-87" value="&lt;font style=&quot;font-size: 18px&quot;&gt;Book Title Author&lt;/font&gt;" style="text;html=1;strokeColor=none;fillColor=#66B2FF;align=center;verticalAlign=middle;whiteSpace=wrap;rounded=0;" parent="Bn5sNCg765aQ84gKmjkC-85" vertex="1">
          <mxGeometry x="30" width="180" height="40" as="geometry" />
        </mxCell>
        <mxCell id="Bn5sNCg765aQ84gKmjkC-88" value="&lt;font style=&quot;font-size: 18px&quot;&gt;Chat snippet&lt;/font&gt;" style="text;html=1;strokeColor=none;fillColor=#66FF66;align=center;verticalAlign=middle;whiteSpace=wrap;rounded=0;" parent="Bn5sNCg765aQ84gKmjkC-85" vertex="1">
          <mxGeometry x="35" y="50" width="175" height="45" as="geometry" />
        </mxCell>
        <mxCell id="Bn5sNCg765aQ84gKmjkC-89" value="" style="group" parent="h2Xa9_2YaoukBSOKHVab-1" vertex="1" connectable="0">
          <mxGeometry x="200" y="610" width="450" height="160" as="geometry" />
        </mxCell>
        <mxCell id="Bn5sNCg765aQ84gKmjkC-90" value="" style="group" parent="Bn5sNCg765aQ84gKmjkC-89" vertex="1" connectable="0">
          <mxGeometry width="160" height="160" as="geometry" />
        </mxCell>
        <mxCell id="Bn5sNCg765aQ84gKmjkC-91" value="" style="ellipse;whiteSpace=wrap;html=1;aspect=fixed;" parent="Bn5sNCg765aQ84gKmjkC-90" vertex="1">
          <mxGeometry width="160" height="160" as="geometry" />
        </mxCell>
        <mxCell id="Bn5sNCg765aQ84gKmjkC-92" value="&lt;font style=&quot;font-size: 18px&quot;&gt;Book Cover&lt;/font&gt;" style="text;html=1;strokeColor=none;fillColor=none;align=center;verticalAlign=middle;whiteSpace=wrap;rounded=0;" parent="Bn5sNCg765aQ84gKmjkC-90" vertex="1">
          <mxGeometry x="20" y="52.5" width="120" height="55" as="geometry" />
        </mxCell>
        <mxCell id="Bn5sNCg765aQ84gKmjkC-93" value="" style="group" parent="Bn5sNCg765aQ84gKmjkC-89" vertex="1" connectable="0">
          <mxGeometry x="180" y="25" width="270" height="110" as="geometry" />
        </mxCell>
        <mxCell id="Bn5sNCg765aQ84gKmjkC-94" value="" style="group" parent="Bn5sNCg765aQ84gKmjkC-93" vertex="1" connectable="0">
          <mxGeometry width="270" height="110" as="geometry" />
        </mxCell>
        <mxCell id="Bn5sNCg765aQ84gKmjkC-95" value="" style="rounded=0;whiteSpace=wrap;html=1;" parent="Bn5sNCg765aQ84gKmjkC-94" vertex="1">
          <mxGeometry width="270" height="110" as="geometry" />
        </mxCell>
        <mxCell id="Bn5sNCg765aQ84gKmjkC-96" value="&lt;font style=&quot;font-size: 18px&quot;&gt;Book Title Author&lt;/font&gt;" style="text;html=1;strokeColor=none;fillColor=#66B2FF;align=center;verticalAlign=middle;whiteSpace=wrap;rounded=0;" parent="Bn5sNCg765aQ84gKmjkC-94" vertex="1">
          <mxGeometry x="30" width="180" height="40" as="geometry" />
        </mxCell>
        <mxCell id="Bn5sNCg765aQ84gKmjkC-97" value="&lt;font style=&quot;font-size: 18px&quot;&gt;Chat snippet&lt;/font&gt;" style="text;html=1;strokeColor=none;fillColor=#66FF66;align=center;verticalAlign=middle;whiteSpace=wrap;rounded=0;" parent="Bn5sNCg765aQ84gKmjkC-94" vertex="1">
          <mxGeometry x="35" y="50" width="175" height="45" as="geometry" />
        </mxCell>
      </root>
    </mxGraphModel>
  </diagram>
  <diagram id="8sUPWHkkixTYsB27cR-U" name="Chat View">
    <mxGraphModel dx="2306" dy="994" grid="1" gridSize="10" guides="1" tooltips="1" connect="1" arrows="1" fold="1" page="1" pageScale="1" pageWidth="850" pageHeight="1100" math="0" shadow="0">
      <root>
        <mxCell id="Na1fWicj1Zk046VtUJdJ-0" />
        <mxCell id="Na1fWicj1Zk046VtUJdJ-1" parent="Na1fWicj1Zk046VtUJdJ-0" />
        <mxCell id="pRxfiBsHmvJ_uXrrxA26-0" value="" style="verticalLabelPosition=bottom;verticalAlign=top;html=1;shadow=0;dashed=0;strokeWidth=1;shape=mxgraph.android.phone2;strokeColor=#c0c0c0;fillColor=#66FF66;" parent="Na1fWicj1Zk046VtUJdJ-1" vertex="1">
          <mxGeometry x="156" y="25" width="538.46" height="1050" as="geometry" />
        </mxCell>
        <mxCell id="pRxfiBsHmvJ_uXrrxA26-11" value="&lt;font style=&quot;font-size: 24px&quot;&gt;Chat View&lt;/font&gt;" style="text;html=1;strokeColor=none;fillColor=none;align=center;verticalAlign=middle;whiteSpace=wrap;rounded=0;" parent="Na1fWicj1Zk046VtUJdJ-1" vertex="1">
          <mxGeometry x="50" y="50" width="40" height="20" as="geometry" />
        </mxCell>
        <mxCell id="U6QO4COGRrfqJx3M3Cou-11" value="" style="group" parent="Na1fWicj1Zk046VtUJdJ-1" vertex="1" connectable="0">
          <mxGeometry x="550" y="180" width="90" height="70" as="geometry" />
        </mxCell>
        <mxCell id="U6QO4COGRrfqJx3M3Cou-8" value="" style="shape=hexagon;perimeter=hexagonPerimeter2;whiteSpace=wrap;html=1;fixedSize=1;" parent="U6QO4COGRrfqJx3M3Cou-11" vertex="1">
          <mxGeometry width="90" height="70" as="geometry" />
        </mxCell>
        <mxCell id="U6QO4COGRrfqJx3M3Cou-9" value="&lt;font style=&quot;font-size: 14px&quot;&gt;Block&lt;/font&gt;" style="text;html=1;strokeColor=none;fillColor=none;align=center;verticalAlign=middle;whiteSpace=wrap;rounded=0;" parent="U6QO4COGRrfqJx3M3Cou-11" vertex="1">
          <mxGeometry x="25" y="25" width="40" height="20" as="geometry" />
        </mxCell>
        <mxCell id="U6QO4COGRrfqJx3M3Cou-12" value="" style="group" parent="Na1fWicj1Zk046VtUJdJ-1" vertex="1" connectable="0">
          <mxGeometry x="370.23" y="160" width="110" height="110" as="geometry" />
        </mxCell>
        <mxCell id="U6QO4COGRrfqJx3M3Cou-6" value="" style="ellipse;whiteSpace=wrap;html=1;aspect=fixed;" parent="U6QO4COGRrfqJx3M3Cou-12" vertex="1">
          <mxGeometry width="110" height="110" as="geometry" />
        </mxCell>
        <mxCell id="U6QO4COGRrfqJx3M3Cou-7" value="&lt;font style=&quot;font-size: 18px&quot;&gt;Book&lt;br&gt;Cover&lt;/font&gt;" style="text;html=1;strokeColor=none;fillColor=none;align=center;verticalAlign=middle;whiteSpace=wrap;rounded=0;" parent="U6QO4COGRrfqJx3M3Cou-12" vertex="1">
          <mxGeometry x="15" y="35" width="80" height="40" as="geometry" />
        </mxCell>
        <mxCell id="jgMNaxRjeHtTxZUoHgN1-0" value="" style="group" parent="Na1fWicj1Zk046VtUJdJ-1" vertex="1" connectable="0">
          <mxGeometry x="200" y="176.5" width="180" height="52" as="geometry" />
        </mxCell>
        <mxCell id="U6QO4COGRrfqJx3M3Cou-5" value="&lt;font style=&quot;font-size: 18px&quot;&gt;Back to&lt;br&gt;Matches View&lt;br&gt;&lt;/font&gt;" style="text;html=1;strokeColor=none;fillColor=none;align=center;verticalAlign=middle;whiteSpace=wrap;rounded=0;" parent="jgMNaxRjeHtTxZUoHgN1-0" vertex="1">
          <mxGeometry y="3.5" width="180" height="45" as="geometry" />
        </mxCell>
        <mxCell id="U6QO4COGRrfqJx3M3Cou-10" value="" style="html=1;verticalLabelPosition=bottom;labelBackgroundColor=#ffffff;verticalAlign=top;shadow=0;dashed=0;strokeWidth=2;shape=mxgraph.ios7.misc.left;strokeColor=#0080f0;fillColor=#007FFF;" parent="jgMNaxRjeHtTxZUoHgN1-0" vertex="1">
          <mxGeometry width="26" height="52" as="geometry" />
        </mxCell>
        <mxCell id="3Rt_74E8ZXZ9o0QE5Ha5-0" value="" style="verticalLabelPosition=bottom;verticalAlign=top;html=1;shadow=0;dashed=0;strokeWidth=1;shape=mxgraph.ios.iKeybLett;" vertex="1" parent="Na1fWicj1Zk046VtUJdJ-1">
          <mxGeometry x="180" y="780" width="500" height="200" as="geometry" />
        </mxCell>
        <mxCell id="SNAuKigmk5EybyU1qCos-1" value="" style="group" vertex="1" connectable="0" parent="Na1fWicj1Zk046VtUJdJ-1">
          <mxGeometry x="350" y="470" width="280" height="120" as="geometry" />
        </mxCell>
        <mxCell id="SNAuKigmk5EybyU1qCos-0" value="" style="html=1;verticalLabelPosition=bottom;align=center;labelBackgroundColor=#ffffff;verticalAlign=top;strokeWidth=2;strokeColor=#0080F0;shadow=0;dashed=0;shape=mxgraph.ios7.icons.message;" vertex="1" parent="SNAuKigmk5EybyU1qCos-1">
          <mxGeometry width="280" height="120" as="geometry" />
        </mxCell>
        <mxCell id="U6QO4COGRrfqJx3M3Cou-1" value="&lt;font style=&quot;font-size: 18px&quot;&gt;&lt;br&gt;Hey there! Are you looking for a novel connection?&lt;br&gt;&lt;/font&gt;" style="text;html=1;strokeColor=none;fillColor=none;align=left;verticalAlign=middle;whiteSpace=wrap;rounded=0;" parent="SNAuKigmk5EybyU1qCos-1" vertex="1">
          <mxGeometry x="10" y="23" width="260" height="50" as="geometry" />
        </mxCell>
        <mxCell id="SNAuKigmk5EybyU1qCos-3" value="" style="group" vertex="1" connectable="0" parent="Na1fWicj1Zk046VtUJdJ-1">
          <mxGeometry x="320" y="630" width="320" height="100" as="geometry" />
        </mxCell>
        <mxCell id="SNAuKigmk5EybyU1qCos-2" value="" style="html=1;verticalLabelPosition=bottom;align=center;labelBackgroundColor=#ffffff;verticalAlign=top;strokeWidth=2;strokeColor=#0080F0;shadow=0;dashed=0;shape=mxgraph.ios7.icons.message;" vertex="1" parent="SNAuKigmk5EybyU1qCos-3">
          <mxGeometry width="320" height="100" as="geometry" />
        </mxCell>
        <mxCell id="U6QO4COGRrfqJx3M3Cou-3" value="&lt;font style=&quot;font-size: 18px&quot;&gt;Possibly. Can you tell me a little bit more about yourself?&lt;/font&gt;" style="text;html=1;strokeColor=none;fillColor=none;align=left;verticalAlign=middle;whiteSpace=wrap;rounded=0;" parent="SNAuKigmk5EybyU1qCos-3" vertex="1">
          <mxGeometry x="32.5" y="20" width="275" height="50" as="geometry" />
        </mxCell>
      </root>
    </mxGraphModel>
  </diagram>
  <diagram id="6fZ4VK2Xe1DaJu-Z1uQA" name="Settings View">
    <mxGraphModel dx="2306" dy="994" grid="1" gridSize="10" guides="1" tooltips="1" connect="1" arrows="1" fold="1" page="1" pageScale="1" pageWidth="850" pageHeight="1100" math="0" shadow="0">
      <root>
        <mxCell id="iCBjmj1Ac60iFlUVChjl-0" />
        <mxCell id="iCBjmj1Ac60iFlUVChjl-1" parent="iCBjmj1Ac60iFlUVChjl-0" />
        <mxCell id="7SrHyliR3y1gb05PJ3m5-0" value="" style="verticalLabelPosition=bottom;verticalAlign=top;html=1;shadow=0;dashed=0;strokeWidth=1;shape=mxgraph.android.phone2;strokeColor=#c0c0c0;fillColor=#66FF66;" parent="iCBjmj1Ac60iFlUVChjl-1" vertex="1">
          <mxGeometry x="156" y="25" width="538.46" height="1050" as="geometry" />
        </mxCell>
        <mxCell id="7SrHyliR3y1gb05PJ3m5-11" value="&lt;font style=&quot;font-size: 24px&quot;&gt;Settings View&lt;/font&gt;" style="text;html=1;strokeColor=none;fillColor=none;align=center;verticalAlign=middle;whiteSpace=wrap;rounded=0;" parent="iCBjmj1Ac60iFlUVChjl-1" vertex="1">
          <mxGeometry x="50" y="50" width="40" height="20" as="geometry" />
        </mxCell>
        <mxCell id="sJsA5tSUcljO-ICm38qS-0" value="&lt;font style=&quot;font-size: 24px&quot;&gt;Settings&lt;/font&gt;" style="text;html=1;strokeColor=none;fillColor=none;align=center;verticalAlign=middle;whiteSpace=wrap;rounded=0;" parent="iCBjmj1Ac60iFlUVChjl-1" vertex="1">
          <mxGeometry x="350" y="156" width="120" height="40" as="geometry" />
        </mxCell>
        <mxCell id="sJsA5tSUcljO-ICm38qS-3" value="" style="rounded=1;whiteSpace=wrap;html=1;" parent="iCBjmj1Ac60iFlUVChjl-1" vertex="1">
          <mxGeometry x="237.5" y="680" width="350" height="70" as="geometry" />
        </mxCell>
        <mxCell id="sJsA5tSUcljO-ICm38qS-4" value="&lt;font style=&quot;font-size: 18px&quot;&gt;Age range slider&lt;/font&gt;" style="text;html=1;strokeColor=none;fillColor=none;align=center;verticalAlign=middle;whiteSpace=wrap;rounded=0;" parent="iCBjmj1Ac60iFlUVChjl-1" vertex="1">
          <mxGeometry x="222.5" y="690" width="380" height="50" as="geometry" />
        </mxCell>
        <mxCell id="sJsA5tSUcljO-ICm38qS-5" value="" style="rounded=1;whiteSpace=wrap;html=1;" parent="iCBjmj1Ac60iFlUVChjl-1" vertex="1">
          <mxGeometry x="242.5" y="410" width="350" height="70" as="geometry" />
        </mxCell>
        <mxCell id="sJsA5tSUcljO-ICm38qS-6" value="&lt;font style=&quot;font-size: 18px&quot;&gt;Price slider&lt;/font&gt;" style="text;html=1;strokeColor=none;fillColor=none;align=center;verticalAlign=middle;whiteSpace=wrap;rounded=0;" parent="iCBjmj1Ac60iFlUVChjl-1" vertex="1">
          <mxGeometry x="222.5" y="420" width="380" height="50" as="geometry" />
        </mxCell>
        <mxCell id="sJsA5tSUcljO-ICm38qS-7" value="" style="group" parent="iCBjmj1Ac60iFlUVChjl-1" vertex="1" connectable="0">
          <mxGeometry x="222.5" y="320" width="380" height="70" as="geometry" />
        </mxCell>
        <mxCell id="sJsA5tSUcljO-ICm38qS-8" value="" style="rounded=1;whiteSpace=wrap;html=1;" parent="sJsA5tSUcljO-ICm38qS-7" vertex="1">
          <mxGeometry x="15" width="350" height="70" as="geometry" />
        </mxCell>
        <mxCell id="sJsA5tSUcljO-ICm38qS-9" value="&lt;font style=&quot;font-size: 18px&quot;&gt;Maximum distance slider&lt;/font&gt;" style="text;html=1;strokeColor=none;fillColor=none;align=center;verticalAlign=middle;whiteSpace=wrap;rounded=0;" parent="sJsA5tSUcljO-ICm38qS-7" vertex="1">
          <mxGeometry y="10" width="380" height="50" as="geometry" />
        </mxCell>
        <mxCell id="sJsA5tSUcljO-ICm38qS-10" value="" style="rounded=1;whiteSpace=wrap;html=1;" parent="iCBjmj1Ac60iFlUVChjl-1" vertex="1">
          <mxGeometry x="242.5" y="500" width="350" height="70" as="geometry" />
        </mxCell>
        <mxCell id="sJsA5tSUcljO-ICm38qS-11" value="&lt;font style=&quot;font-size: 18px&quot;&gt;Page count slider&lt;/font&gt;" style="text;html=1;strokeColor=none;fillColor=none;align=center;verticalAlign=middle;whiteSpace=wrap;rounded=0;" parent="iCBjmj1Ac60iFlUVChjl-1" vertex="1">
          <mxGeometry x="212.5" y="510" width="380" height="50" as="geometry" />
        </mxCell>
        <mxCell id="sJsA5tSUcljO-ICm38qS-12" value="" style="rounded=1;whiteSpace=wrap;html=1;" parent="iCBjmj1Ac60iFlUVChjl-1" vertex="1">
          <mxGeometry x="242.5" y="590" width="350" height="70" as="geometry" />
        </mxCell>
        <mxCell id="sJsA5tSUcljO-ICm38qS-13" value="&lt;font style=&quot;font-size: 18px&quot;&gt;Maturity toggle on/off&lt;/font&gt;" style="text;html=1;strokeColor=none;fillColor=none;align=center;verticalAlign=middle;whiteSpace=wrap;rounded=0;" parent="iCBjmj1Ac60iFlUVChjl-1" vertex="1">
          <mxGeometry x="222.5" y="600" width="380" height="50" as="geometry" />
        </mxCell>
        <mxCell id="sJsA5tSUcljO-ICm38qS-14" value="" style="rounded=1;whiteSpace=wrap;html=1;" parent="iCBjmj1Ac60iFlUVChjl-1" vertex="1">
          <mxGeometry x="237.5" y="230" width="350" height="70" as="geometry" />
        </mxCell>
        <mxCell id="sJsA5tSUcljO-ICm38qS-15" value="&lt;span style=&quot;font-size: 18px&quot;&gt;Edit profile&lt;/span&gt;" style="text;html=1;strokeColor=none;fillColor=none;align=center;verticalAlign=middle;whiteSpace=wrap;rounded=0;" parent="iCBjmj1Ac60iFlUVChjl-1" vertex="1">
          <mxGeometry x="222.5" y="240" width="380" height="50" as="geometry" />
        </mxCell>
        <mxCell id="sJsA5tSUcljO-ICm38qS-16" value="" style="rounded=0;whiteSpace=wrap;html=1;" parent="iCBjmj1Ac60iFlUVChjl-1" vertex="1">
          <mxGeometry x="250" y="770" width="340" height="200" as="geometry" />
        </mxCell>
        <mxCell id="sJsA5tSUcljO-ICm38qS-17" value="" style="group" parent="iCBjmj1Ac60iFlUVChjl-1" vertex="1" connectable="0">
          <mxGeometry x="270" y="830" width="90" height="50" as="geometry" />
        </mxCell>
        <mxCell id="2gUbxAwmkJ3odEz9MmCL-3" value="" style="group" parent="sJsA5tSUcljO-ICm38qS-17" vertex="1" connectable="0">
          <mxGeometry width="90" height="50" as="geometry" />
        </mxCell>
        <mxCell id="sJsA5tSUcljO-ICm38qS-18" value="" style="ellipse;whiteSpace=wrap;html=1;" parent="2gUbxAwmkJ3odEz9MmCL-3" vertex="1">
          <mxGeometry width="90" height="50" as="geometry" />
        </mxCell>
        <mxCell id="sJsA5tSUcljO-ICm38qS-19" value="Mystery" style="text;html=1;strokeColor=none;fillColor=none;align=center;verticalAlign=middle;whiteSpace=wrap;rounded=0;" parent="2gUbxAwmkJ3odEz9MmCL-3" vertex="1">
          <mxGeometry x="25" y="15" width="40" height="20" as="geometry" />
        </mxCell>
        <mxCell id="sJsA5tSUcljO-ICm38qS-20" value="" style="group" parent="iCBjmj1Ac60iFlUVChjl-1" vertex="1" connectable="0">
          <mxGeometry x="370" y="900" width="90" height="50" as="geometry" />
        </mxCell>
        <mxCell id="2gUbxAwmkJ3odEz9MmCL-5" value="" style="group" parent="sJsA5tSUcljO-ICm38qS-20" vertex="1" connectable="0">
          <mxGeometry width="90" height="50" as="geometry" />
        </mxCell>
        <mxCell id="2gUbxAwmkJ3odEz9MmCL-9" value="" style="group" parent="2gUbxAwmkJ3odEz9MmCL-5" vertex="1" connectable="0">
          <mxGeometry width="90" height="50" as="geometry" />
        </mxCell>
        <mxCell id="2gUbxAwmkJ3odEz9MmCL-10" value="" style="group" parent="2gUbxAwmkJ3odEz9MmCL-9" vertex="1" connectable="0">
          <mxGeometry width="90" height="50" as="geometry" />
        </mxCell>
        <mxCell id="sJsA5tSUcljO-ICm38qS-21" value="" style="ellipse;whiteSpace=wrap;html=1;" parent="2gUbxAwmkJ3odEz9MmCL-10" vertex="1">
          <mxGeometry width="90" height="50" as="geometry" />
        </mxCell>
        <mxCell id="sJsA5tSUcljO-ICm38qS-22" value="Fiction" style="text;html=1;strokeColor=none;fillColor=none;align=center;verticalAlign=middle;whiteSpace=wrap;rounded=0;" parent="2gUbxAwmkJ3odEz9MmCL-10" vertex="1">
          <mxGeometry x="25" y="15" width="40" height="20" as="geometry" />
        </mxCell>
        <mxCell id="sJsA5tSUcljO-ICm38qS-23" value="" style="group" parent="iCBjmj1Ac60iFlUVChjl-1" vertex="1" connectable="0">
          <mxGeometry x="260" y="900" width="90" height="50" as="geometry" />
        </mxCell>
        <mxCell id="2gUbxAwmkJ3odEz9MmCL-4" value="" style="group" parent="sJsA5tSUcljO-ICm38qS-23" vertex="1" connectable="0">
          <mxGeometry width="90" height="50" as="geometry" />
        </mxCell>
        <mxCell id="2gUbxAwmkJ3odEz9MmCL-11" value="" style="group" parent="2gUbxAwmkJ3odEz9MmCL-4" vertex="1" connectable="0">
          <mxGeometry width="90" height="50" as="geometry" />
        </mxCell>
        <mxCell id="sJsA5tSUcljO-ICm38qS-24" value="" style="ellipse;whiteSpace=wrap;html=1;" parent="2gUbxAwmkJ3odEz9MmCL-11" vertex="1">
          <mxGeometry x="10" width="90" height="50" as="geometry" />
        </mxCell>
        <mxCell id="sJsA5tSUcljO-ICm38qS-25" value="Fantasy" style="text;html=1;strokeColor=none;fillColor=none;align=center;verticalAlign=middle;whiteSpace=wrap;rounded=0;" parent="2gUbxAwmkJ3odEz9MmCL-11" vertex="1">
          <mxGeometry x="35" y="15" width="40" height="20" as="geometry" />
        </mxCell>
        <mxCell id="sJsA5tSUcljO-ICm38qS-32" value="" style="group" parent="iCBjmj1Ac60iFlUVChjl-1" vertex="1" connectable="0">
          <mxGeometry x="370" y="830" width="90" height="50" as="geometry" />
        </mxCell>
        <mxCell id="sJsA5tSUcljO-ICm38qS-33" value="" style="ellipse;whiteSpace=wrap;html=1;" parent="sJsA5tSUcljO-ICm38qS-32" vertex="1">
          <mxGeometry width="90" height="50" as="geometry" />
        </mxCell>
        <mxCell id="sJsA5tSUcljO-ICm38qS-34" value="Romance" style="text;html=1;strokeColor=none;fillColor=none;align=center;verticalAlign=middle;whiteSpace=wrap;rounded=0;" parent="sJsA5tSUcljO-ICm38qS-32" vertex="1">
          <mxGeometry x="25" y="15" width="40" height="20" as="geometry" />
        </mxCell>
        <mxCell id="sJsA5tSUcljO-ICm38qS-35" value="&lt;font style=&quot;font-size: 18px&quot;&gt;Genre selection&lt;/font&gt;" style="text;html=1;strokeColor=none;fillColor=none;align=center;verticalAlign=middle;whiteSpace=wrap;rounded=0;" parent="iCBjmj1Ac60iFlUVChjl-1" vertex="1">
          <mxGeometry x="350" y="770" width="150" height="50" as="geometry" />
        </mxCell>
        <mxCell id="2gUbxAwmkJ3odEz9MmCL-0" value="" style="group" parent="iCBjmj1Ac60iFlUVChjl-1" vertex="1" connectable="0">
          <mxGeometry x="190" y="150" width="180" height="52" as="geometry" />
        </mxCell>
        <mxCell id="2gUbxAwmkJ3odEz9MmCL-1" value="&lt;font style=&quot;font-size: 18px&quot;&gt;Back to&lt;br&gt;Home&amp;nbsp;View&lt;br&gt;&lt;/font&gt;" style="text;html=1;strokeColor=none;fillColor=none;align=center;verticalAlign=middle;whiteSpace=wrap;rounded=0;" parent="2gUbxAwmkJ3odEz9MmCL-0" vertex="1">
          <mxGeometry y="3.5" width="180" height="45" as="geometry" />
        </mxCell>
        <mxCell id="2gUbxAwmkJ3odEz9MmCL-2" value="" style="html=1;verticalLabelPosition=bottom;labelBackgroundColor=#ffffff;verticalAlign=top;shadow=0;dashed=0;strokeWidth=2;shape=mxgraph.ios7.misc.left;strokeColor=#0080f0;fillColor=#007FFF;" parent="2gUbxAwmkJ3odEz9MmCL-0" vertex="1">
          <mxGeometry width="26" height="52" as="geometry" />
        </mxCell>
        <mxCell id="2gUbxAwmkJ3odEz9MmCL-12" value="" style="group" parent="iCBjmj1Ac60iFlUVChjl-1" vertex="1" connectable="0">
          <mxGeometry x="470" y="830" width="90" height="50" as="geometry" />
        </mxCell>
        <mxCell id="2gUbxAwmkJ3odEz9MmCL-13" value="" style="ellipse;whiteSpace=wrap;html=1;" parent="2gUbxAwmkJ3odEz9MmCL-12" vertex="1">
          <mxGeometry width="90" height="50" as="geometry" />
        </mxCell>
        <mxCell id="2gUbxAwmkJ3odEz9MmCL-14" value="Non-Fiction" style="text;html=1;strokeColor=none;fillColor=none;align=center;verticalAlign=middle;whiteSpace=wrap;rounded=0;" parent="2gUbxAwmkJ3odEz9MmCL-12" vertex="1">
          <mxGeometry x="25" y="15" width="40" height="20" as="geometry" />
        </mxCell>
        <mxCell id="2gUbxAwmkJ3odEz9MmCL-16" value="" style="group" parent="iCBjmj1Ac60iFlUVChjl-1" vertex="1" connectable="0">
          <mxGeometry x="470" y="900" width="90" height="50" as="geometry" />
        </mxCell>
        <mxCell id="2gUbxAwmkJ3odEz9MmCL-17" value="" style="group" parent="2gUbxAwmkJ3odEz9MmCL-16" vertex="1" connectable="0">
          <mxGeometry width="90" height="50" as="geometry" />
        </mxCell>
        <mxCell id="2gUbxAwmkJ3odEz9MmCL-18" value="" style="group" parent="2gUbxAwmkJ3odEz9MmCL-17" vertex="1" connectable="0">
          <mxGeometry width="90" height="50" as="geometry" />
        </mxCell>
        <mxCell id="2gUbxAwmkJ3odEz9MmCL-19" value="" style="group" parent="2gUbxAwmkJ3odEz9MmCL-18" vertex="1" connectable="0">
          <mxGeometry width="90" height="50" as="geometry" />
        </mxCell>
        <mxCell id="2gUbxAwmkJ3odEz9MmCL-20" value="" style="ellipse;whiteSpace=wrap;html=1;" parent="2gUbxAwmkJ3odEz9MmCL-19" vertex="1">
          <mxGeometry width="90" height="50" as="geometry" />
        </mxCell>
        <mxCell id="2gUbxAwmkJ3odEz9MmCL-21" value="Biography" style="text;html=1;strokeColor=none;fillColor=none;align=center;verticalAlign=middle;whiteSpace=wrap;rounded=0;" parent="2gUbxAwmkJ3odEz9MmCL-19" vertex="1">
          <mxGeometry x="25" y="15" width="40" height="20" as="geometry" />
        </mxCell>
      </root>
    </mxGraphModel>
  </diagram>
</mxfile>
